<?xml version="1.0" encoding="UTF-8" standalone="no"?>
<!-- Created with Inkscape (http://www.inkscape.org/) -->

<svg
   version="1.1"
   id="svg1"
   width="318.14532"
   height="285.15201"
   viewBox="0 0 318.14532 285.15201"
   xmlns="http://www.w3.org/2000/svg"
   xmlns:svg="http://www.w3.org/2000/svg">
  <defs
     id="defs1">
    <clipPath
       clipPathUnits="userSpaceOnUse"
       id="clipPath2">
      <path
         d="M 0,0 H 215.9973 V -183.60303 H 0 Z"
         transform="matrix(0.00462948,0,0,-0.00544668,0,-1.0893351e-5)"
         id="path2" />
    </clipPath>
  </defs>
  <g
     id="g1">
    <path
       id="path1"
       d="M 0,0 H 215.9973 V -183.60303 H 0 Z"
       style="fill:#ffffff;fill-opacity:1;fill-rule:nonzero;stroke:none"
       transform="matrix(1.3333333,0,0,-1.3333333,22.404,0.26666667)" />
    <path
       style="fill:#000000"
       d="M 38.91408,122.668 V 0.26933333 h 4.586133 4.586133 V 122.668 245.06666 H 43.500213 38.91408 Z m 53.199146,0 V 0.26933333 h 4.586133 4.586131 V 122.668 245.06666 h -4.586131 -4.586133 z m 75.212584,0 V 0.26933333 h 4.58613 4.58614 V 122.668 245.06666 h -4.58614 -4.58613 z m 51.36469,0 V 0.26933333 h 4.58614 4.58613 V 122.668 245.06666 h -4.58613 -4.58614 z m 64.20587,0 V 0.26933333 h 4.58613 4.58614 V 122.668 245.06666 h -4.58614 -4.58613 z"
       id="path13" />
    <path
       id="path3"
       d="M 0,0 V -4.25209 M 43.19945,0 V -4.25209 M 86.39891,0 V -4.25209 M 129.59837,0 V -4.25209 M 172.79784,0 V -4.25209 M 215.9973,0 V -4.25209 M 0,-183.60303 v 4.25213 m 43.19945,-4.25213 v 4.25213 m 43.19946,-4.25213 v 4.25213 m 43.19946,-4.25213 v 4.25213 m 43.19947,-4.25213 v 4.25213 m 43.19946,-4.25213 v 4.25213"
       style="fill:none;stroke:#808080;stroke-width:0.19925;stroke-linecap:butt;stroke-linejoin:miter;stroke-miterlimit:10;stroke-dasharray:none;stroke-opacity:1"
       transform="matrix(1.3333333,0,0,-1.3333333,22.404,0.26666667)" />
    <path
       id="path4"
       d="M 0,0 V -183.60303 H 215.9973 V 0 Z"
       style="fill:none;stroke:#000000;stroke-width:0.3985;stroke-linecap:butt;stroke-linejoin:miter;stroke-miterlimit:10;stroke-dasharray:none;stroke-opacity:1"
       transform="matrix(1.3333333,0,0,-1.3333333,22.404,0.26666667)" />
    <path
       id="path5"
       d="m 4.5815547,-3.1882656 c 0,-0.796875 -0.046875,-1.59375 -0.3984375,-2.3320313 -0.4570313,-0.9609375 -1.2773438,-1.1132812 -1.6875,-1.1132812 -0.5976563,0 -1.3359375,0.2578125 -1.73437501,1.1835937 -0.328125,0.6914063 -0.375,1.4648438 -0.375,2.2617188 0,0.75 0.046875,1.640625 0.4453125,2.40234372 0.43359371,0.80859375 1.16015621,1.0078125 1.65234371,1.0078125 0.5390625,0 1.2890625,-0.2109375 1.734375,-1.16015625 C 4.5346797,-1.6296719 4.5815547,-2.4031094 4.5815547,-3.1882656 Z M 2.4838984,-7.65625e-4 c -0.3867187,0 -0.984375,-0.246093755 -1.1601562,-1.207031275 -0.1054688,-0.5976562 -0.1054688,-1.5117187 -0.1054688,-2.0976562 0,-0.6445313 0,-1.3007813 0.082031,-1.8398438 0.1875,-1.1835937 0.9257812,-1.265625 1.1835937,-1.265625 0.328125,0 0.984375,0.1757813 1.171875,1.1601563 0.09375,0.5625 0.09375,1.3125 0.09375,1.9453125 0,0.75 0,1.4179687 -0.1054687,2.0625 -0.1523438,0.93749997 -0.7148438,1.242187475 -1.160156,1.242187475 z m 0,0"
       style="fill:#000000;fill-opacity:1;fill-rule:nonzero;stroke:none"
       aria-label="0"
       transform="matrix(1.3333333,0,0,1.3333333,19.082667,258.32133)" />
    <path
       id="path6"
       d="m 2.9284531,-6.3757656 c 0,-0.234375 0,-0.2578125 -0.234375,-0.2578125 -0.609375,0.6328125 -1.4882812,0.6328125 -1.80468748,0.6328125 v 0.3164062 c 0.19921878,0 0.78515628,0 1.30078128,-0.2578125 v 5.15625002 c 0,0.3515625 -0.035156,0.48046875 -0.9257813,0.48046875 H 0.94798437 V -7.65625e-4 C 1.2995469,-0.03592188 2.1550156,-0.03592188 2.5534531,-0.03592188 c 0.3984375,0 1.265625,0 1.6171875,0.035156255 V -0.30545313 H 3.8542344 c -0.9023438,0 -0.9257813,-0.1171875 -0.9257813,-0.48046875 z m 0,0"
       style="fill:#000000;fill-opacity:1;fill-rule:nonzero;stroke:none"
       aria-label="1"
       transform="matrix(1.3333333,0,0,1.3333333,76.681333,258.32133)" />
    <path
       id="path7"
       d="M 1.2665625,-0.76248438 2.32125,-1.7937344 c 1.5585937,-1.3710937 2.15625,-1.9101562 2.15625,-2.90625 0,-1.1367187 -0.9023438,-1.9335937 -2.1210938,-1.9335937 -1.125,0 -1.85156245,0.9140625 -1.85156245,1.8046875 0,0.5507812 0.4921875,0.5507812 0.52734375,0.5507812 0.1640625,0 0.515625,-0.1171875 0.515625,-0.5273437 0,-0.2578125 -0.1875,-0.515625 -0.5273438,-0.515625 -0.0820312,0 -0.1054687,0 -0.1289062,0.011719 0.2226562,-0.6445312 0.7617187,-1.0195312 1.3359375,-1.0195312 0.9140625,0 1.3359375,0.8085937 1.3359375,1.6289062 0,0.796875 -0.4921875,1.5820313 -1.0429688,2.203125 L 0.6103125,-0.36404688 C 0.50484375,-0.25857813 0.50484375,-0.23514063 0.50484375,-7.65625e-4 H 4.19625 L 4.4775,-1.7351406 H 4.2196875 C 4.1728125,-1.4304531 4.1025,-0.99685938 4.00875,-0.84451563 c -0.070312,0.0820313 -0.7265625,0.0820313 -0.9492188,0.0820313 z m 0,0"
       style="fill:#000000;fill-opacity:1;fill-rule:nonzero;stroke:none"
       aria-label="2"
       transform="matrix(1.3333333,0,0,1.3333333,134.28,258.32133)" />
    <path
       id="path8"
       d="m 2.8947109,-3.5046719 c 0.8085938,-0.2695312 1.3945313,-0.9726562 1.3945313,-1.7578125 0,-0.8203125 -0.8789063,-1.3710937 -1.8398438,-1.3710937 -1.0078125,0 -1.75781246,0.5976562 -1.75781246,1.3476562 0,0.3398438 0.2109375,0.5273438 0.50390626,0.5273438 0.3046875,0 0.5039062,-0.2226563 0.5039062,-0.515625 0,-0.4921875 -0.46875,-0.4921875 -0.609375,-0.4921875 0.3046875,-0.4921875 0.9609375,-0.6210938 1.3242188,-0.6210938 0.4101562,0 0.9492187,0.2226563 0.9492187,1.1132813 0,0.1289062 -0.011719,0.703125 -0.2695312,1.1367187 -0.3046875,0.4804688 -0.6445313,0.515625 -0.890625,0.515625 -0.082031,0.011719 -0.3164063,0.035156 -0.3867188,0.035156 -0.082031,0.011719 -0.1523437,0.023437 -0.1523437,0.1171875 0,0.1171875 0.070312,0.1171875 0.234375,0.1171875 h 0.4453125 c 0.8085937,0 1.1835937,0.6679687 1.1835937,1.6523437 0,1.34765627 -0.6914062,1.64062502 -1.125,1.64062502 -0.4335937,0 -1.171875,-0.17578125 -1.52343746,-0.76171875 0.35156246,0.0585938 0.65624996,-0.1640625 0.65624996,-0.53906247 0,-0.3632813 -0.2695312,-0.5625 -0.56249996,-0.5625 -0.234375,0 -0.55078125,0.140625 -0.55078125,0.5742187 0,0.91406252 0.92578121,1.57031252 2.00390621,1.57031252 1.21875,0 2.1210938,-0.9140625 2.1210938,-1.92187502 0,-0.8203125 -0.6210938,-1.59375 -1.6523438,-1.8046872 z m 0,0"
       style="fill:#000000;fill-opacity:1;fill-rule:nonzero;stroke:none"
       aria-label="3"
       transform="matrix(1.3333333,0,0,1.3333333,191.87867,258.32133)" />
    <path
       id="path9"
       d="m 2.9291094,-1.6413906 v 0.86718747 c 0,0.3515625 -0.023437,0.46875 -0.7617188,0.46875 H 1.9564531 v 0.304687505 c 0.4101563,-0.035156255 0.9375,-0.035156255 1.3476563,-0.035156255 0.421875,0 0.9492187,0 1.359375,0.035156255 V -0.30545313 H 4.4525469 c -0.7382813,0 -0.7617188,-0.1171875 -0.7617188,-0.46875 V -1.6413906 H 4.6869219 V -1.9577969 H 3.6908281 v -4.5234375 c 0,-0.1992187 0,-0.2578125 -0.1523437,-0.2578125 -0.09375,0 -0.1171875,0 -0.1992188,0.1171875 l -3.05859373,4.6640625 v 0.3164063 z m 0.058594,-0.3164063 H 0.56192187 L 2.9877031,-5.6726406 Z m 0,0"
       style="fill:#000000;fill-opacity:1;fill-rule:nonzero;stroke:none"
       aria-label="4"
       transform="matrix(1.3333333,0,0,1.3333333,249.47733,258.32133)" />
    <path
       id="path10"
       d="m 4.4752266,-2.0046719 c 0,-1.1835937 -0.8203125,-2.1796875 -1.8984375,-2.1796875 -0.4804688,0 -0.9023438,0.1640625 -1.265625,0.5039063 v -1.9335938 c 0.1992187,0.058594 0.5273437,0.1289063 0.84375,0.1289063 1.2304687,0 1.9335937,-0.9140625 1.9335937,-1.0429688 0,-0.058594 -0.035156,-0.1054687 -0.1054687,-0.1054687 -0.011719,0 -0.035156,0 -0.082031,0.023437 -0.1992187,0.09375 -0.6796875,0.2929687 -1.3476562,0.2929687 -0.3984375,0 -0.8554688,-0.070312 -1.3242188,-0.28125 -0.082031,-0.023437 -0.1054687,-0.023437 -0.1289062,-0.023437 -0.09375,0 -0.09375,0.082031 -0.09375,0.234375 v 2.953125 c 0,0.1757813 0,0.2578125 0.140625,0.2578125 0.070312,0 0.082031,-0.035156 0.1289062,-0.09375 0.1054688,-0.1523437 0.4804688,-0.6914062 1.2773438,-0.6914062 0.5273437,0 0.7734375,0.4570312 0.8554687,0.6328125 0.1523438,0.375 0.1757813,0.7617187 0.1757813,1.2539062 0,0.3515625 0,0.9492188 -0.234375,1.37109377 -0.2460938,0.38671875 -0.609375,0.64453125 -1.0664063,0.64453125 -0.7265625,0 -1.30078124,-0.52734375 -1.46484374,-1.11328122 0.0234375,0.011719 0.0585938,0.011719 0.1640625,0.011719 0.32812504,0 0.50390624,-0.2460937 0.50390624,-0.4804687 0,-0.2460938 -0.1757812,-0.4921875 -0.50390624,-0.4921875 -0.140625,0 -0.48046875,0.070312 -0.48046875,0.5273437 0,0.85546877 0.67968749,1.82812502 1.79296879,1.82812502 1.1601562,0 2.1796875,-0.9609375 2.1796872,-2.22656282 z m 0,0"
       style="fill:#000000;fill-opacity:1;fill-rule:nonzero;stroke:none"
       aria-label="5"
       transform="matrix(1.3333333,0,0,1.3333333,307.076,258.32133)" />
    <path
       id="path11"
       d="M 1.7213594,-3.9856172 H 3.1510469 V -4.2903047 H 1.7213594 V -6.1301484 H 1.4752656 c -0.011719,0.8203125 -0.3164062,1.8867187 -1.28906248,1.921875 v 0.2226562 H 1.0299531 v 2.7539063 c 0,1.21874996 0.9257813,1.33593746 1.2890625,1.33593746 0.703125,0 0.984375,-0.703125 0.984375,-1.33593746 V -1.8059297 H 3.0572969 v 0.5507813 c 0,0.73828121 -0.3046875,1.11328121 -0.6679688,1.11328121 -0.6679687,0 -0.6679687,-0.90234371 -0.6679687,-1.07812501 z m 3.9111328,-0.421875 -1.3945313,0.1171875 v 0.3046875 c 0.65625,0 0.7382813,0.058594 0.7382813,0.5507813 v 2.67187496 c 0,0.45703125 -0.1054688,0.45703125 -0.7734375,0.45703125 v 0.3046875 c 0.3164062,-0.01171875 0.8554687,-0.03515625 1.1015625,-0.03515625 0.3398437,0 0.6914062,0.0234375 1.03125,0.03515625 v -0.3046875 c -0.65625,0 -0.703125,-0.0585938 -0.703125,-0.4453125 z m 0.046875,-1.734375 c 0,-0.3164062 -0.2460938,-0.5273437 -0.5273438,-0.5273437 -0.3164062,0 -0.5273437,0.2695312 -0.5273437,0.5273437 0,0.2695313 0.2109375,0.5273438 0.5273437,0.5273438 0.28125,0 0.5273438,-0.1992188 0.5273438,-0.5273438 z m 2.0654297,2.71875 v 2.66015626 c 0,0.45703125 -0.1171875,0.45703125 -0.7851563,0.45703125 v 0.3046875 c 0.3515625,-0.01171875 0.8554688,-0.03515625 1.125,-0.03515625 0.2578125,0 0.7851563,0.0234375 1.1132813,0.03515625 v -0.3046875 c -0.65625,0 -0.7734375,0 -0.7734375,-0.45703125 V -2.5910859 c 0,-1.03125 0.7148437,-1.59375 1.3476562,-1.59375 0.6210934,0 0.7382814,0.5390625 0.7382814,1.1015625 v 2.32031246 c 0,0.45703125 -0.117188,0.45703125 -0.7734376,0.45703125 v 0.3046875 c 0.3398436,-0.01171875 0.8554686,-0.03515625 1.1249996,-0.03515625 0.257813,0 0.773438,0.0234375 1.113282,0.03515625 v -0.3046875 c -0.667969,0 -0.785157,0 -0.785157,-0.45703125 V -2.5910859 c 0,-1.03125 0.714844,-1.59375 1.347657,-1.59375 0.632812,0 0.738281,0.5390625 0.738281,1.1015625 v 2.32031246 c 0,0.45703125 -0.105469,0.45703125 -0.773438,0.45703125 v 0.3046875 c 0.351563,-0.01171875 0.855469,-0.03515625 1.125,-0.03515625 0.257813,0 0.773438,0.0234375 1.113282,0.03515625 v -0.3046875 c -0.515625,0 -0.761719,0 -0.773438,-0.3046875 V -2.5090547 c 0,-0.8554687 0,-1.171875 -0.316406,-1.5234375 -0.128906,-0.1757812 -0.46875,-0.375 -1.042969,-0.375 -0.832031,0 -1.277344,0.5976563 -1.441406,0.984375 -0.140625,-0.8671875 -0.878906,-0.984375 -1.3242189,-0.984375 -0.7265625,0 -1.1953125,0.4335938 -1.4765625,1.0546875 v -1.0546875 l -1.40625,0.1171875 v 0.3046875 c 0.703125,0 0.7851563,0.070312 0.7851563,0.5625 z m 8.3115231,0.9140625 c 0.05859,-1.4882812 0.902344,-1.734375 1.242188,-1.734375 1.019531,0 1.125,1.3476563 1.125,1.734375 z m -0.01172,0.2109375 h 2.789062 c 0.210938,0 0.246094,0 0.246094,-0.2109375 0,-0.984375 -0.539063,-1.9570312 -1.78125,-1.9570312 -1.160156,0 -2.074219,1.03125 -2.074219,2.2734375 0,1.33593746 1.042969,2.29687496 2.191406,2.29687496 1.21875,0 1.664063,-1.1015625 1.664063,-1.28906246 0,-0.1054688 -0.08203,-0.1171875 -0.128906,-0.1171875 -0.09375,0 -0.117188,0.058594 -0.128907,0.140625 -0.351562,1.01953121 -1.253906,1.01953121 -1.347656,1.01953121 -0.503906,0 -0.902344,-0.29296875 -1.125,-0.66796875 C 16.044602,-1.2903047 16.044602,-1.9465547 16.044602,-2.2981172 Z m 9.1875,4.7929688 V 2.0964141 H 24.259443 V -7.0793672 H 25.2321 v -0.3984375 h -1.371094 v 9.9726563 z m 2.299804,-4.4296875 c 0.222656,0.035156 1.03125,0.1992187 1.03125,0.9140625 0,0.51562496 -0.351562,0.91406246 -1.125,0.91406246 -0.832031,0 -1.195312,-0.57421875 -1.382812,-1.41796876 -0.03516,-0.1289062 -0.03516,-0.1757812 -0.140625,-0.1757812 -0.128907,0 -0.128907,0.070312 -0.128907,0.2578125 v 1.31249996 c 0,0.1640625 0,0.234375 0.105469,0.234375 0.05859,0 0.07031,0 0.257813,-0.19921875 0.01172,-0.01171875 0.01172,-0.03515625 0.199218,-0.22265625 0.433594,0.421875 0.878907,0.421875 1.089844,0.421875 1.148438,0 1.605469,-0.66796875 1.605469,-1.38281246 0,-0.5273438 -0.292969,-0.8203125 -0.421875,-0.9492188 -0.328125,-0.3164062 -0.714844,-0.3984375 -1.136719,-0.46875 -0.550781,-0.1171875 -1.21875,-0.2460937 -1.21875,-0.8203125 0,-0.3515625 0.257813,-0.7617187 1.113281,-0.7617187 1.101563,0 1.148438,0.9023437 1.171875,1.2070312 0,0.09375 0.09375,0.09375 0.117188,0.09375 0.128906,0 0.128906,-0.046875 0.128906,-0.2460937 v -0.9960938 c 0,-0.1757812 0,-0.2460937 -0.117187,-0.2460937 -0.04687,0 -0.07031,0 -0.199219,0.1171875 -0.02344,0.046875 -0.128906,0.1289062 -0.164063,0.1640625 -0.375,-0.28125 -0.785156,-0.28125 -0.9375,-0.28125 -1.21875,0 -1.59375,0.6679687 -1.59375,1.2304687 0,0.3398438 0.164063,0.6210938 0.433594,0.84375 0.316406,0.2578125 0.597656,0.3164063 1.3125,0.4570313 z m 3.436524,-5.5429688 h -1.359375 v 0.3984375 h 0.960937 v 9.1757813 h -0.960937 v 0.3984375 h 1.359375 z m 0,0"
       style="fill:#000000;fill-opacity:1;fill-rule:nonzero;stroke:none"
       aria-label="time[s]"
       transform="matrix(1.3333333,0,0,1.3333333,144.96267,277.404)" />
    <path
       id="path12"
       d="M 1.7449844,-4.2890938 V -5.44925 c 0,-0.8789063 0.4804687,-1.359375 0.9140625,-1.359375 0.035156,0 0.1757812,0 0.328125,0.070312 -0.1171875,0.046875 -0.2929688,0.1757812 -0.2929688,0.421875 0,0.234375 0.1523438,0.4335937 0.421875,0.4335937 0.2929688,0 0.4335938,-0.1992187 0.4335938,-0.4453125 0,-0.3632812 -0.3632813,-0.6914062 -0.890625,-0.6914062 -0.703125,0 -1.546875,0.5273437 -1.546875,1.5820312 v 1.1484375 H 0.32701563 v 0.3046875 H 1.1121719 V -0.76175 c 0,0.45703125 -0.1054688,0.45703125 -0.77343752,0.45703125 V -3.125e-5 C 0.72545313,-0.01175 1.1942031,-0.0351875 1.4754531,-0.0351875 c 0.3984375,0 0.8671875,0 1.265625,0.03515625 v -0.3046875 H 2.5301406 c -0.7382812,0 -0.7617187,-0.1171875 -0.7617187,-0.46875 V -3.9844063 h 1.1367187 v -0.3046875 z m 2.9648437,0.984375 v -1.1015625 l -1.3828125,0.1171875 v 0.3046875 c 0.6914063,0 0.7734375,0.070312 0.7734375,0.5625 V -0.76175 c 0,0.45703125 -0.1054687,0.45703125 -0.7734375,0.45703125 V -3.125e-5 C 3.7137344,-0.01175 4.1824844,-0.0351875 4.4637344,-0.0351875 c 0.3984375,0 0.8671875,0 1.265625,0.03515625 v -0.3046875 H 5.5184219 c -0.7382813,0 -0.7617188,-0.1171875 -0.7617188,-0.46875 V -2.308625 c 0,-0.984375 0.421875,-1.875 1.1835938,-1.875 0.058594,0 0.082031,0 0.1054687,0.011719 -0.035156,0.011719 -0.234375,0.1289063 -0.234375,0.3867188 0,0.28125 0.2109375,0.4335937 0.4335938,0.4335937 0.1757812,0 0.421875,-0.1289062 0.421875,-0.4453125 0,-0.3164062 -0.3046875,-0.609375 -0.7265625,-0.609375 -0.7382813,0 -1.0898438,0.6679688 -1.2304688,1.1015622 z m 3.3515625,0.796875 c 0.058594,-1.4882812 0.9023438,-1.734375 1.2421875,-1.734375 1.0195309,0 1.1249999,1.3476563 1.1249999,1.734375 z m -0.011719,0.2109375 h 2.7890624 c 0.210938,0 0.246094,0 0.246094,-0.2109375 0,-0.984375 -0.539062,-1.9570312 -1.7812502,-1.9570312 -1.1601562,0 -2.0742187,1.03125 -2.0742187,2.2734375 0,1.3359375 1.0429687,2.296875 2.1914062,2.296875 1.2187507,0 1.6640627,-1.1015625 1.6640627,-1.2890625 0,-0.1054688 -0.08203,-0.1171875 -0.128906,-0.1171875 -0.09375,0 -0.117188,0.058594 -0.128906,0.140625 -0.351563,1.01953125 -1.2539069,1.01953125 -1.3476569,1.01953125 -0.5039063,0 -0.9023438,-0.29296875 -1.125,-0.66796875 C 8.0496719,-1.2890938 8.0496719,-1.9453438 8.0496716,-2.2969063 Z m 7.1103514,1.68750005 V 1.1718437 c 0,0.4570313 -0.105468,0.4570313 -0.773437,0.4570313 v 0.3046875 c 0.339844,-0.011719 0.855469,-0.035156 1.113281,-0.035156 0.269531,0 0.773438,0.023437 1.125,0.035156 V 1.628875 c -0.667969,0 -0.773437,0 -0.773437,-0.4570313 v -5.578125 h -0.222657 l -0.375,0.9140625 c -0.128906,-0.28125 -0.539062,-0.9140625 -1.335937,-0.9140625 -1.160156,0 -2.203125,0.9726563 -2.203125,2.2617188 0,1.2421875 0.960937,2.25 2.121094,2.25 0.691406,0 1.101562,-0.421875 1.324218,-0.71484375 z m 0.03516,-2.14453125 v 1.3945312 c 0,0.328125 -0.1875,0.5976563 -0.398438,0.84375005 -0.128906,0.140625 -0.457031,0.41015625 -0.925781,0.41015625 -0.726563,0 -1.335938,-0.890625 -1.335938,-2.0390625 0,-1.1835938 0.703125,-2.0039063 1.441407,-2.0039063 0.796875,0 1.21875,0.8554688 1.21875,1.3945313 z m 5.329101,1.96875 v 0.890625 L 21.965688,-3.125e-5 v -0.3046875 c -0.703125,0 -0.785157,-0.0703125 -0.785157,-0.5625 V -4.4062813 l -1.453125,0.1171875 v 0.3046875 c 0.691407,0 0.773438,0.070312 0.773438,0.5625 v 1.7695313 c 0,0.8671875 -0.480469,1.546875 -1.207031,1.546875 -0.832032,0 -0.878907,-0.46875 -0.878907,-0.9960938 v -3.3046875 l -1.464843,0.1171875 v 0.3046875 c 0.785156,0 0.785156,0.035156 0.785156,0.9140625 v 1.5 c 0,0.77343755 0,1.6757813 1.511719,1.6757813 0.550781,0 0.996093,-0.26953125 1.277343,-0.890625 z m 2.756836,-1.7226563 c 0.05859,-1.4882812 0.902344,-1.734375 1.242188,-1.734375 1.019531,0 1.125,1.3476563 1.125,1.734375 z m -0.01172,0.2109375 h 2.789063 c 0.210937,0 0.246094,0 0.246094,-0.2109375 0,-0.984375 -0.539063,-1.9570312 -1.78125,-1.9570312 -1.160157,0 -2.074219,1.03125 -2.074219,2.2734375 0,1.3359375 1.042969,2.296875 2.191406,2.296875 1.21875,0 1.664063,-1.1015625 1.664063,-1.2890625 0,-0.1054688 -0.08203,-0.1171875 -0.128907,-0.1171875 -0.09375,0 -0.117187,0.058594 -0.128906,0.140625 -0.351562,1.01953125 -1.253906,1.01953125 -1.347656,1.01953125 -0.503906,0 -0.902344,-0.29296875 -1.125,-0.66796875 C 23.2694,-1.2890938 23.2694,-1.9453438 23.2694,-2.2969063 Z m 4.426758,-1.125 V -0.76175 c 0,0.45703125 -0.117187,0.45703125 -0.785156,0.45703125 v 0.3046875 c 0.351563,-0.01171875 0.855469,-0.03515625 1.125,-0.03515625 0.257813,0 0.785156,0.0234375 1.113281,0.03515625 v -0.3046875 c -0.65625,0 -0.773437,0 -0.773437,-0.45703125 v -1.828125 c 0,-1.03125 0.714844,-1.59375 1.347656,-1.59375 0.621094,0 0.738281,0.5390625 0.738281,1.1015625 V -0.76175 c 0,0.45703125 -0.117187,0.45703125 -0.773437,0.45703125 v 0.3046875 c 0.339844,-0.01171875 0.855469,-0.03515625 1.125,-0.03515625 0.257812,0 0.773437,0.0234375 1.113281,0.03515625 v -0.3046875 c -0.515625,0 -0.773437,0 -0.785156,-0.3046875 V -2.5078438 c 0,-0.8554687 0,-1.171875 -0.304688,-1.5234375 -0.140625,-0.1757812 -0.46875,-0.375 -1.042968,-0.375 -0.726563,0 -1.195313,0.4335938 -1.476563,1.0546875 V -4.4062813 L 26.911,-4.2890938 v 0.3046875 c 0.703125,0 0.785156,0.070312 0.785156,0.5625 z M 33.291859,-2.168 c 0,-1.6289063 0.820313,-2.0507813 1.347657,-2.0507813 0.09375,0 0.714843,0.011719 1.066406,0.375 -0.410156,0.023437 -0.46875,0.328125 -0.46875,0.4570313 0,0.2578125 0.1875,0.4570312 0.457031,0.4570312 0.257813,0 0.457031,-0.1640625 0.457031,-0.46875 0,-0.6796875 -0.75,-1.0664062 -1.523437,-1.0664062 -1.242188,0 -2.15625,1.078125 -2.15625,2.3085937 0,1.2773438 0.984375,2.2617188 2.144531,2.2617188 1.335938,0 1.652344,-1.1953125 1.652344,-1.2890625 0,-0.1054688 -0.105469,-0.1054688 -0.128906,-0.1054688 -0.09375,0 -0.117188,0.046875 -0.128907,0.1054688 -0.292968,0.92578125 -0.9375,1.04296875 -1.3125,1.04296875 -0.527343,0 -1.40625,-0.421875 -1.40625,-2.02734375 z m 7.403321,-1.1835938 c 0.257812,-0.6210937 0.761718,-0.6328125 0.925781,-0.6328125 v -0.3046875 c -0.234375,0.011719 -0.515625,0.023437 -0.75,0.023437 -0.175781,0 -0.644531,-0.023437 -0.867188,-0.023437 v 0.3046875 c 0.304688,0.011719 0.46875,0.1757813 0.46875,0.4335938 0,0.09375 -0.01172,0.1171875 -0.05859,0.234375 L 39.40612,-0.86721875 38.304558,-3.5508125 c -0.04687,-0.09375 -0.05859,-0.140625 -0.05859,-0.1757813 0,-0.2578125 0.363281,-0.2578125 0.550781,-0.2578125 v -0.3046875 c -0.257812,0 -0.914062,0.023437 -1.078125,0.023437 -0.269531,0 -0.667969,-0.011719 -0.972656,-0.023437 v 0.3046875 c 0.480469,0 0.667969,0 0.808594,0.3515625 l 1.5,3.63281255 C 38.995961,0.128875 38.855336,0.457 38.796742,0.58590625 38.585805,1.1366875 38.304555,1.8280937 37.660023,1.8280937 c -0.04687,0 -0.269531,0 -0.46875,-0.1875 0.316407,-0.035156 0.398438,-0.2578125 0.398438,-0.4101562 0,-0.26953125 -0.199219,-0.421875 -0.421875,-0.421875 -0.199219,0 -0.421875,0.12890625 -0.421875,0.421875 0,0.4570312 0.421875,0.8085937 0.914062,0.8085937 0.632813,0 1.042969,-0.5625 1.277344,-1.1367187 z m 6.981445,5.8476563 V 2.097625 h -0.972656 v -9.1757813 h 0.972656 v -0.3984375 h -1.371094 v 9.9726563 z m 6.331055,-8.5195313 c 0,-0.3632812 0.02344,-0.46875 0.785156,-0.46875 H 55.03893 V -6.808625 c -0.351563,0.035156 -1.089844,0.035156 -1.464844,0.035156 -0.386719,0 -1.125,0 -1.476563,-0.035156 v 0.3164062 h 0.234375 c 0.773438,0 0.785157,0.1054688 0.785157,0.46875 v 2.3320313 h -2.976563 v -2.3320313 c 0,-0.3632812 0.02344,-0.46875 0.785156,-0.46875 h 0.246094 V -6.808625 c -0.351562,0.035156 -1.089844,0.035156 -1.464844,0.035156 -0.375,0 -1.125,0 -1.476562,-0.035156 v 0.3164062 h 0.234375 c 0.773437,0 0.796875,0.1054688 0.796875,0.46875 v 5.25000005 c 0,0.3515625 -0.02344,0.46875 -0.796875,0.46875 h -0.234375 v 0.3046875 c 0.351562,-0.03515625 1.089844,-0.03515625 1.464844,-0.03515625 0.375,0 1.125,0 1.476562,0.03515625 v -0.3046875 h -0.246094 c -0.761718,0 -0.785156,-0.1171875 -0.785156,-0.46875 V -3.38675 h 2.976563 v 2.61328125 c 0,0.3515625 -0.01172,0.46875 -0.785157,0.46875 h -0.234375 v 0.3046875 c 0.351563,-0.03515625 1.089844,-0.03515625 1.464844,-0.03515625 0.375,0 1.125,0 1.476563,0.03515625 v -0.3046875 h -0.246094 c -0.761719,0 -0.785156,-0.1171875 -0.785156,-0.46875 z m 5.255859,2.0273438 c 0.08203,-0.1054688 0.08203,-0.1289063 0.08203,-0.1640625 0,-0.1289063 -0.08203,-0.1289063 -0.257812,-0.1289063 h -3.1875 l -0.105469,1.59375 h 0.246094 c 0.05859,-1.0078125 0.246094,-1.3828125 1.347656,-1.3828125 h 1.136719 l -2.789063,3.7617188 c -0.08203,0.10546875 -0.08203,0.12890625 -0.08203,0.17578125 0,0.140625 0.07031,0.140625 0.257813,0.140625 h 3.28125 l 0.175781,-1.86328125 h -0.246094 c -0.09375,1.171875 -0.304687,1.6171875 -1.453125,1.6171875 h -1.183594 z m 2.118164,-3.4804688 h -1.359375 v 0.3984375 h 0.960938 V 2.097625 h -0.960938 v 0.3984375 h 1.359375 z m 0,0"
       style="fill:#000000;fill-opacity:1;fill-rule:nonzero;stroke:none"
       aria-label="frequency[Hz]"
       transform="matrix(0,-1.3333333,1.3333333,0,14.390667,164.38133)" />
  </g>
</svg>
